<svg width="26" height="26" viewBox="0 0 26 26" fill="none" xmlns="http://www.w3.org/2000/svg">
  <path d="M25.6 12.8C25.6 13.8886 24.7182 14.7698 23.6308 14.7698H14.7692V23.6314C14.7692 24.72 13.8874 25.6 12.8 25.6C11.7126 25.6 10.8308 24.72 10.8308 23.6314V14.7698H1.96923C0.881846 14.7698 0 13.8886 0 12.8C0 11.7114 0.881846 10.8314 1.96923 10.8314H10.8308V1.96985C10.8308 0.881231 11.7126 0 12.8 0C13.8874 0 14.7692 0.881231 14.7692 1.96985V10.8314H23.6308C24.72 10.8308 25.6 11.7108 25.6 12.8Z" fill="white" />
</svg>