<svg width="26" height="34" viewBox="0 0 26 34" fill="none" xmlns="http://www.w3.org/2000/svg">
  <path d="M5.76813 19.9263H5.24375V16.78H5.76813C6.6399 16.78 7.34125 17.4814 7.34125 18.3531C7.34125 19.2249 6.6399 19.9263 5.76813 19.9263ZM12.585 16.78H13.1094C13.6862 16.78 14.1581 17.2519 14.1581 17.8288V22.0238C14.1581 22.6006 13.6862 23.0725 13.1094 23.0725H12.585V16.78ZM14.6825 0V8.39C14.6825 9.55018 15.6198 10.4875 16.78 10.4875H25.17V29.365C25.17 31.6788 23.2888 33.56 20.975 33.56H4.195C1.87792 33.56 0 31.6788 0 29.365V4.195C0 1.87792 1.87792 0 4.195 0H14.6825ZM4.195 14.6825C3.61557 14.6825 3.14625 15.1544 3.14625 15.7313V24.1213C3.14625 24.6981 3.61557 25.17 4.195 25.17C4.77443 25.17 5.24375 24.6981 5.24375 24.1213V22.0238H5.76813C7.79352 22.0238 9.43875 20.3785 9.43875 18.3531C9.43875 16.3277 7.79352 14.6825 5.76813 14.6825H4.195ZM10.4875 24.1213C10.4875 24.6981 10.9594 25.17 11.5363 25.17H13.1094C14.8464 25.17 16.2556 23.7607 16.2556 22.0238V17.8288C16.2556 16.0918 14.8464 14.6825 13.1094 14.6825H11.5363C10.9594 14.6825 10.4875 15.1544 10.4875 15.7313V24.1213ZM18.8775 14.6825C18.3007 14.6825 17.8288 15.1544 17.8288 15.7313V24.1213C17.8288 24.6981 18.3007 25.17 18.8775 25.17C19.4543 25.17 19.9263 24.6981 19.9263 24.1213V20.975H22.0238C22.6006 20.975 23.0725 20.5031 23.0725 19.9263C23.0725 19.3494 22.6006 18.8775 22.0238 18.8775H19.9263V16.78H22.0238C22.6006 16.78 23.0725 16.3081 23.0725 15.7313C23.0725 15.1544 22.6006 14.6825 22.0238 14.6825H18.8775ZM16.78 0L25.17 8.39H16.78V0Z" fill="#265948" />
</svg>