<svg width="27" height="27" viewBox="0 0 27 27" fill="none" xmlns="http://www.w3.org/2000/svg">
  <path d="M22.2381 11.6174L9.94042 23.9098L8.15272 22.1221L8.33729 21.9375H5.90624C5.44218 21.9375 5.06249 21.5578 5.06249 21.0937V18.6627L4.87845 18.8473C4.62901 19.1004 4.44602 19.4062 4.34635 19.7437L3.13452 23.8676L7.25624 22.6547C7.54628 22.5545 7.8996 22.3699 8.15272 22.1221L9.94042 23.9098C9.39198 24.4582 8.71171 24.8643 7.96815 25.0805L1.62262 26.9473C1.1786 27.0791 0.698191 26.9578 0.370711 26.5834C0.0432197 26.3039 -0.079219 25.824 0.0514568 25.3758L1.91794 19.0318C2.13731 18.2883 2.53968 17.608 3.08864 17.0596L15.3826 4.76402L22.2381 11.6174ZM25.9822 3.09814C27.3006 4.41598 27.3006 6.55488 25.9822 7.87324L23.4299 10.4256L16.5744 3.57117L19.1267 1.01883C20.4451 -0.299427 22.5861 -0.299427 23.9045 1.01883L25.9822 3.09814Z" fill="#265948" />
</svg>