<svg width="38" height="44" viewBox="0 0 38 44" fill="none" xmlns="http://www.w3.org/2000/svg">
  <path d="M38 28.875V4.125C38 1.8468 36.1763 0 33.9286 0H8.14286C3.64562 0 0 3.69359 0 8.25V35.75C0 40.3064 3.64562 44 8.14286 44H35.2857C36.7845 44 38 42.7685 38 41.3273C38 40.3202 37.4396 39.478 36.6429 38.9984V32.0066C37.4741 31.1781 38 30.0953 38 28.875ZM12.1379 11H28.4237C29.2464 11 29.8571 11.6187 29.8571 12.375C29.8571 13.1313 29.2464 13.75 28.5 13.75H12.1379C11.4679 13.75 10.8571 13.1313 10.8571 12.375C10.8571 11.6187 11.4679 11 12.1379 11ZM12.1379 16.5H28.4237C29.2464 16.5 29.8571 17.1187 29.8571 17.875C29.8571 18.6313 29.2464 19.25 28.5 19.25H12.1379C11.4679 19.25 10.8571 18.6313 10.8571 17.875C10.8571 17.1187 11.4679 16.5 12.1379 16.5ZM32.5714 38.5H8.14286C6.64406 38.5 5.42857 37.2685 5.42857 35.75C5.42857 34.2315 6.64406 33 8.14286 33H32.5714V38.5Z" fill="#FFFDE9" />
</svg>