<svg width="52" height="52" viewBox="0 0 52 52" fill="none" xmlns="http://www.w3.org/2000/svg">
  <path d="M9.75 48.75H16.25C18.0477 48.75 19.5 47.2977 19.5 45.5C19.5 43.7023 18.0477 42.25 16.25 42.25H9.75C7.95539 42.25 6.5 40.7946 6.5 39V13C6.5 11.2054 7.95539 9.75 9.75 9.75H16.25C18.0477 9.75 19.5 8.29461 19.5 6.5C19.5 4.70539 18.0477 3.25 16.25 3.25H9.75C4.36516 3.25 0 7.61516 0 13V39C0 44.3828 4.36516 48.75 9.75 48.75ZM51.2687 24.2227L36.6336 10.4102C35.9252 9.74208 34.8867 9.55957 33.993 9.94358C33.0989 10.3292 32.5193 11.2101 32.5193 12.183L32.51 19.4955L19.51 19.4954C17.7133 19.4954 16.2579 20.9508 16.2579 22.7454V29.2454C16.2579 31.04 17.7143 32.4954 19.51 32.4954L32.51 32.4955L32.5193 39.7166C32.5193 40.6894 33.0989 41.5701 33.993 41.9561C34.887 42.3401 35.9257 42.1576 36.6336 41.4895L51.2687 27.677C52.2437 26.8531 52.2437 25.1469 51.2687 24.2227Z" fill="#FFFDE9" />
</svg>