<svg width="44" height="35" viewBox="0 0 44 35" fill="none" xmlns="http://www.w3.org/2000/svg">
  <path d="M44 2.05078e-05V27.3438C44 31.5752 40.5556 35 36.3 35C32.1063 35 28.7031 31.6709 28.6 27.5283L3.32819 34.3779C2.156 34.6924 0.94669 34.0088 0.627415 32.8398C0.308003 31.6777 0.999628 30.4746 2.17182 30.1533L24.2 24.1855V4.375C24.2 1.9585 26.1731 0 28.6 0L44 2.05078e-05ZM36.3 24.0625C34.4781 24.0625 33 25.5322 33 27.3438C33 29.1553 34.4781 30.625 36.3 30.625C38.1219 30.625 39.6 29.1553 39.6 27.3438C39.6 25.5322 38.1219 24.0625 36.3 24.0625ZM1.58882 14.1982C1.27463 13.0293 1.97107 11.833 3.14463 11.5186L6.33188 10.6709L7.755 15.9551C7.91313 16.5361 8.51813 16.8232 9.1025 16.7275L11.2269 16.1602C11.8113 16.0029 12.1619 15.4014 12.0038 14.8203L10.5806 9.53613L13.7706 8.68848C14.9463 8.37402 16.1494 9.07129 16.4656 10.2334L19.3119 20.8018C19.6281 21.9707 18.9269 23.167 17.7581 23.4814L7.12938 26.3115C5.9565 26.626 4.75063 25.9287 4.43575 24.7666L1.58882 14.1982Z" fill="#FFFDE9" />
</svg>