<svg width="44" height="31" viewBox="0 0 44 31" fill="none" xmlns="http://www.w3.org/2000/svg">
  <path d="M5.17209 0.283199L22 2.31347L38.83 0.283199C39.2907 0.225777 39.7375 0.465035 39.9507 0.879292L42.8175 6.5791C43.4294 7.80273 42.7763 9.28613 41.4494 9.66211L30.2225 12.8545C29.2669 13.1211 28.2425 12.7246 27.7338 11.8154L22 2.31347L16.2663 11.8154C15.7575 12.7246 14.7332 13.1211 13.7775 12.8545L2.54859 9.66211C1.22447 9.28613 0.569487 7.80273 1.18528 6.5791L4.05216 0.879292C4.26047 0.465035 4.70941 0.225777 5.17209 0.283199ZM22.0757 6.75L25.8432 12.998C26.8675 14.6934 28.9094 15.4385 30.8275 14.9531L39.6 12.4648V23.874C39.6 25.3779 38.5688 26.6904 37.0975 27.0596L23.0657 30.5459C22.3644 30.7236 21.6357 30.7236 20.9344 30.5459L6.90253 27.0596C5.43059 26.6904 4.40003 25.3779 4.40003 23.874V12.4648L13.1725 14.9531C15.0907 15.4385 17.1325 14.6934 18.1569 12.998L21.9244 6.75H22.0757Z" fill="#FFFDE9" />
</svg>